<svg xmlns="http://www.w3.org/2000/svg" viewBox="0 0 24 24" fill="none">
  <path d="M19.14 12.94c.04-.31.06-.63.06-.94s-.02-.63-.06-.94l2.03-1.58a.5.5 0 0 0 .12-.64l-1.92-3.32a.488.488 0 0 0-.59-.22l-2.39.96c-.5-.38-1.05-.7-1.66-.94l-.36-2.54A.488.488 0 0 0 13.89 2h-3.78c-.24 0-.45.18-.48.42l-.36 2.54c-.61.24-1.17.56-1.67.94l-2.38-.96a.488.488 0 0 0-.59.22L2.71 8.48a.5.5 0 0 0 .12.64l2.03 1.58c-.04.31-.06.63-.06.94s.02.63.06.94l-2.03 1.58a.5.5 0 0 0-.12.64l1.92 3.32c.12.22.38.3.59.22l2.38-.96c.5.38 1.06.7 1.67.94l.36 2.54c.03.24.24.42.48.42h3.78c.24 0 .45-.18.48-.42l.36-2.54c.61-.24 1.16-.56 1.66-.94l2.39.96c.22.08.47 0 .59-.22l1.92-3.32a.5.5 0 0 0-.12-.64l-2.03-1.58zM12 15.5A3.5 3.5 0 1 1 12 8a3.5 3.5 0 0 1 0 7.5z" fill="currentColor"/>
</svg>
